<svg width="32" height="32" viewBox="0 0 32 32" fill="none" xmlns="http://www.w3.org/2000/svg">
<rect x="0.425" y="0.425" width="31.15" height="31.15" rx="1.275" fill="#106576" fill-opacity="0.8" stroke="url(#paint0_linear_107_2526)" stroke-width="0.85"/>
<path d="M15.0833 21.4433C11.4658 20.9922 8.66663 17.9063 8.66663 14.1667C8.66663 10.1166 11.9499 6.83334 16 6.83334C20.0501 6.83334 23.3333 10.1166 23.3333 14.1667C23.3333 17.9063 20.5341 20.9922 16.9166 21.4433V23.344C20.5341 23.4286 23.3333 24.0072 23.3333 24.7083C23.3333 25.4677 20.0501 26.0833 16 26.0833C11.9499 26.0833 8.66663 25.4677 8.66663 24.7083C8.66663 24.0072 11.4658 23.4286 15.0833 23.344V21.4433ZM16 19.6667C19.0375 19.6667 21.5 17.2042 21.5 14.1667C21.5 11.1291 19.0375 8.66667 16 8.66667C12.9624 8.66667 10.5 11.1291 10.5 14.1667C10.5 17.2042 12.9624 19.6667 16 19.6667ZM16 16C14.9874 16 14.1666 15.1792 14.1666 14.1667C14.1666 13.1541 14.9874 12.3333 16 12.3333C17.0125 12.3333 17.8333 13.1541 17.8333 14.1667C17.8333 15.1792 17.0125 16 16 16Z" fill="#01FDE7"/>
<defs>
<linearGradient id="paint0_linear_107_2526" x1="0" y1="0" x2="32" y2="30.8" gradientUnits="userSpaceOnUse">
<stop stop-color="#00FFE8"/>
<stop offset="1" stop-color="#00998B"/>
</linearGradient>
</defs>
</svg>
